<svg xmlns="http://www.w3.org/2000/svg" viewBox="0 0 380 380" width="380" height="380">
<defs><filter id="ps" x="-20%" y="-20%" width="140%" height="140%"><feDropShadow dx="0" dy="1" stdDeviation="1" flood-color="#000000" flood-opacity="0.7"/></filter></defs>
<rect width="380" height="380" fill="#13100d" rx="6"/>
<rect x="10" y="10" width="360" height="360" fill="none" stroke="#c9a227" stroke-width="1.5" rx="2"/>
<rect x="14" y="14" width="44" height="44" fill="#5d4427"/>
<rect x="58" y="14" width="44" height="44" fill="#1e1208"/>
<rect x="102" y="14" width="44" height="44" fill="#5d4427"/>
<rect x="146" y="14" width="44" height="44" fill="#1e1208"/>
<rect x="190" y="14" width="44" height="44" fill="#5d4427"/>
<rect x="234" y="14" width="44" height="44" fill="#1e1208"/>
<rect x="278" y="14" width="44" height="44" fill="#5d4427"/>
<rect x="322" y="14" width="44" height="44" fill="#1e1208"/>
<rect x="14" y="58" width="44" height="44" fill="#1e1208"/>
<rect x="58" y="58" width="44" height="44" fill="#5d4427"/>
<rect x="102" y="58" width="44" height="44" fill="#1e1208"/>
<rect x="146" y="58" width="44" height="44" fill="#5d4427"/>
<rect x="190" y="58" width="44" height="44" fill="#1e1208"/>
<rect x="234" y="58" width="44" height="44" fill="#5d4427"/>
<rect x="278" y="58" width="44" height="44" fill="#1e1208"/>
<rect x="322" y="58" width="44" height="44" fill="#5d4427"/>
<rect x="14" y="102" width="44" height="44" fill="#5d4427"/>
<rect x="58" y="102" width="44" height="44" fill="#1e1208"/>
<rect x="102" y="102" width="44" height="44" fill="#5d4427"/>
<rect x="146" y="102" width="44" height="44" fill="#1e1208"/>
<rect x="190" y="102" width="44" height="44" fill="#5d4427"/>
<rect x="234" y="102" width="44" height="44" fill="#1e1208"/>
<rect x="278" y="102" width="44" height="44" fill="#5d4427"/>
<rect x="322" y="102" width="44" height="44" fill="#1e1208"/>
<rect x="14" y="146" width="44" height="44" fill="#1e1208"/>
<rect x="58" y="146" width="44" height="44" fill="#5d4427"/>
<rect x="102" y="146" width="44" height="44" fill="#1e1208"/>
<rect x="146" y="146" width="44" height="44" fill="#5d4427"/>
<rect x="190" y="146" width="44" height="44" fill="#1e1208"/>
<rect x="234" y="146" width="44" height="44" fill="#5d4427"/>
<rect x="278" y="146" width="44" height="44" fill="#1e1208"/>
<rect x="322" y="146" width="44" height="44" fill="#5d4427"/>
<rect x="14" y="190" width="44" height="44" fill="#5d4427"/>
<rect x="58" y="190" width="44" height="44" fill="#1e1208"/>
<rect x="102" y="190" width="44" height="44" fill="#5d4427"/>
<rect x="146" y="190" width="44" height="44" fill="#1e1208"/>
<rect x="190" y="190" width="44" height="44" fill="#5d4427"/>
<rect x="234" y="190" width="44" height="44" fill="#1e1208"/>
<rect x="278" y="190" width="44" height="44" fill="#5d4427"/>
<rect x="322" y="190" width="44" height="44" fill="#1e1208"/>
<rect x="14" y="234" width="44" height="44" fill="#1e1208"/>
<rect x="58" y="234" width="44" height="44" fill="#5d4427"/>
<rect x="102" y="234" width="44" height="44" fill="#1e1208"/>
<rect x="146" y="234" width="44" height="44" fill="#5d4427"/>
<rect x="190" y="234" width="44" height="44" fill="#1e1208"/>
<rect x="234" y="234" width="44" height="44" fill="#5d4427"/>
<rect x="278" y="234" width="44" height="44" fill="#1e1208"/>
<rect x="322" y="234" width="44" height="44" fill="#5d4427"/>
<rect x="14" y="278" width="44" height="44" fill="#5d4427"/>
<rect x="58" y="278" width="44" height="44" fill="#1e1208"/>
<rect x="102" y="278" width="44" height="44" fill="#5d4427"/>
<rect x="146" y="278" width="44" height="44" fill="#1e1208"/>
<rect x="190" y="278" width="44" height="44" fill="#5d4427"/>
<rect x="234" y="278" width="44" height="44" fill="#1e1208"/>
<rect x="278" y="278" width="44" height="44" fill="#5d4427"/>
<rect x="322" y="278" width="44" height="44" fill="#1e1208"/>
<rect x="14" y="322" width="44" height="44" fill="#1e1208"/>
<rect x="58" y="322" width="44" height="44" fill="#5d4427"/>
<rect x="102" y="322" width="44" height="44" fill="#1e1208"/>
<rect x="146" y="322" width="44" height="44" fill="#5d4427"/>
<rect x="190" y="322" width="44" height="44" fill="#1e1208"/>
<rect x="234" y="322" width="44" height="44" fill="#5d4427"/>
<rect x="278" y="322" width="44" height="44" fill="#1e1208"/>
<rect x="322" y="322" width="44" height="44" fill="#5d4427"/>
<text x="36" y="50" font-family="'Noto Sans Symbols','Apple Symbols','Segoe UI Symbol',serif" font-size="28" text-anchor="middle" fill="#c9a227" stroke="#0d0902" stroke-width="0.5" filter="url(#ps)">♜</text>
<text x="80" y="50" font-family="'Noto Sans Symbols','Apple Symbols','Segoe UI Symbol',serif" font-size="28" text-anchor="middle" fill="#c9a227" stroke="#0d0902" stroke-width="0.5" filter="url(#ps)">♞</text>
<text x="124" y="50" font-family="'Noto Sans Symbols','Apple Symbols','Segoe UI Symbol',serif" font-size="28" text-anchor="middle" fill="#c9a227" stroke="#0d0902" stroke-width="0.5" filter="url(#ps)">♝</text>
<text x="168" y="50" font-family="'Noto Sans Symbols','Apple Symbols','Segoe UI Symbol',serif" font-size="28" text-anchor="middle" fill="#c9a227" stroke="#0d0902" stroke-width="0.5" filter="url(#ps)">♛</text>
<text x="212" y="50" font-family="'Noto Sans Symbols','Apple Symbols','Segoe UI Symbol',serif" font-size="28" text-anchor="middle" fill="#c9a227" stroke="#0d0902" stroke-width="0.5" filter="url(#ps)">♚</text>
<text x="256" y="50" font-family="'Noto Sans Symbols','Apple Symbols','Segoe UI Symbol',serif" font-size="28" text-anchor="middle" fill="#c9a227" stroke="#0d0902" stroke-width="0.5" filter="url(#ps)">♝</text>
<text x="300" y="50" font-family="'Noto Sans Symbols','Apple Symbols','Segoe UI Symbol',serif" font-size="28" text-anchor="middle" fill="#c9a227" stroke="#0d0902" stroke-width="0.5" filter="url(#ps)">♞</text>
<text x="344" y="50" font-family="'Noto Sans Symbols','Apple Symbols','Segoe UI Symbol',serif" font-size="28" text-anchor="middle" fill="#c9a227" stroke="#0d0902" stroke-width="0.5" filter="url(#ps)">♜</text>
<text x="36" y="94" font-family="'Noto Sans Symbols','Apple Symbols','Segoe UI Symbol',serif" font-size="28" text-anchor="middle" fill="#c9a227" stroke="#0d0902" stroke-width="0.5" filter="url(#ps)">♟</text>
<text x="80" y="94" font-family="'Noto Sans Symbols','Apple Symbols','Segoe UI Symbol',serif" font-size="28" text-anchor="middle" fill="#c9a227" stroke="#0d0902" stroke-width="0.5" filter="url(#ps)">♟</text>
<text x="124" y="94" font-family="'Noto Sans Symbols','Apple Symbols','Segoe UI Symbol',serif" font-size="28" text-anchor="middle" fill="#c9a227" stroke="#0d0902" stroke-width="0.5" filter="url(#ps)">♟</text>
<text x="168" y="94" font-family="'Noto Sans Symbols','Apple Symbols','Segoe UI Symbol',serif" font-size="28" text-anchor="middle" fill="#c9a227" stroke="#0d0902" stroke-width="0.5" filter="url(#ps)">♟</text>
<text x="212" y="94" font-family="'Noto Sans Symbols','Apple Symbols','Segoe UI Symbol',serif" font-size="28" text-anchor="middle" fill="#c9a227" stroke="#0d0902" stroke-width="0.5" filter="url(#ps)">♟</text>
<text x="256" y="94" font-family="'Noto Sans Symbols','Apple Symbols','Segoe UI Symbol',serif" font-size="28" text-anchor="middle" fill="#c9a227" stroke="#0d0902" stroke-width="0.5" filter="url(#ps)">♟</text>
<text x="300" y="94" font-family="'Noto Sans Symbols','Apple Symbols','Segoe UI Symbol',serif" font-size="28" text-anchor="middle" fill="#c9a227" stroke="#0d0902" stroke-width="0.5" filter="url(#ps)">♟</text>
<text x="344" y="94" font-family="'Noto Sans Symbols','Apple Symbols','Segoe UI Symbol',serif" font-size="28" text-anchor="middle" fill="#c9a227" stroke="#0d0902" stroke-width="0.5" filter="url(#ps)">♟</text>
<text x="36" y="314" font-family="'Noto Sans Symbols','Apple Symbols','Segoe UI Symbol',serif" font-size="28" text-anchor="middle" fill="#e8d5a3" stroke="#1a1208" stroke-width="0.5" filter="url(#ps)">♙</text>
<text x="80" y="314" font-family="'Noto Sans Symbols','Apple Symbols','Segoe UI Symbol',serif" font-size="28" text-anchor="middle" fill="#e8d5a3" stroke="#1a1208" stroke-width="0.5" filter="url(#ps)">♙</text>
<text x="124" y="314" font-family="'Noto Sans Symbols','Apple Symbols','Segoe UI Symbol',serif" font-size="28" text-anchor="middle" fill="#e8d5a3" stroke="#1a1208" stroke-width="0.5" filter="url(#ps)">♙</text>
<text x="168" y="314" font-family="'Noto Sans Symbols','Apple Symbols','Segoe UI Symbol',serif" font-size="28" text-anchor="middle" fill="#e8d5a3" stroke="#1a1208" stroke-width="0.5" filter="url(#ps)">♙</text>
<text x="212" y="314" font-family="'Noto Sans Symbols','Apple Symbols','Segoe UI Symbol',serif" font-size="28" text-anchor="middle" fill="#e8d5a3" stroke="#1a1208" stroke-width="0.5" filter="url(#ps)">♙</text>
<text x="256" y="314" font-family="'Noto Sans Symbols','Apple Symbols','Segoe UI Symbol',serif" font-size="28" text-anchor="middle" fill="#e8d5a3" stroke="#1a1208" stroke-width="0.5" filter="url(#ps)">♙</text>
<text x="300" y="314" font-family="'Noto Sans Symbols','Apple Symbols','Segoe UI Symbol',serif" font-size="28" text-anchor="middle" fill="#e8d5a3" stroke="#1a1208" stroke-width="0.5" filter="url(#ps)">♙</text>
<text x="344" y="314" font-family="'Noto Sans Symbols','Apple Symbols','Segoe UI Symbol',serif" font-size="28" text-anchor="middle" fill="#e8d5a3" stroke="#1a1208" stroke-width="0.5" filter="url(#ps)">♙</text>
<text x="36" y="358" font-family="'Noto Sans Symbols','Apple Symbols','Segoe UI Symbol',serif" font-size="28" text-anchor="middle" fill="#e8d5a3" stroke="#1a1208" stroke-width="0.5" filter="url(#ps)">♖</text>
<text x="80" y="358" font-family="'Noto Sans Symbols','Apple Symbols','Segoe UI Symbol',serif" font-size="28" text-anchor="middle" fill="#e8d5a3" stroke="#1a1208" stroke-width="0.5" filter="url(#ps)">♘</text>
<text x="124" y="358" font-family="'Noto Sans Symbols','Apple Symbols','Segoe UI Symbol',serif" font-size="28" text-anchor="middle" fill="#e8d5a3" stroke="#1a1208" stroke-width="0.5" filter="url(#ps)">♗</text>
<text x="168" y="358" font-family="'Noto Sans Symbols','Apple Symbols','Segoe UI Symbol',serif" font-size="28" text-anchor="middle" fill="#e8d5a3" stroke="#1a1208" stroke-width="0.5" filter="url(#ps)">♕</text>
<text x="212" y="358" font-family="'Noto Sans Symbols','Apple Symbols','Segoe UI Symbol',serif" font-size="28" text-anchor="middle" fill="#e8d5a3" stroke="#1a1208" stroke-width="0.5" filter="url(#ps)">♔</text>
<text x="256" y="358" font-family="'Noto Sans Symbols','Apple Symbols','Segoe UI Symbol',serif" font-size="28" text-anchor="middle" fill="#e8d5a3" stroke="#1a1208" stroke-width="0.5" filter="url(#ps)">♗</text>
<text x="300" y="358" font-family="'Noto Sans Symbols','Apple Symbols','Segoe UI Symbol',serif" font-size="28" text-anchor="middle" fill="#e8d5a3" stroke="#1a1208" stroke-width="0.5" filter="url(#ps)">♘</text>
<text x="344" y="358" font-family="'Noto Sans Symbols','Apple Symbols','Segoe UI Symbol',serif" font-size="28" text-anchor="middle" fill="#e8d5a3" stroke="#1a1208" stroke-width="0.5" filter="url(#ps)">♖</text>
</svg>
