<svg xmlns="http://www.w3.org/2000/svg" viewBox="0 0 388 388" width="388" height="388">
<rect width="388" height="388" fill="#13100d" rx="8"/>
<rect x="8" y="8" width="372" height="372" fill="none" stroke="#c9a227" stroke-width="1.5" rx="4"/>
<rect x="18" y="18" width="44" height="44" fill="#4a3520"/>
<rect x="62" y="18" width="44" height="44" fill="#1a1208"/>
<rect x="106" y="18" width="44" height="44" fill="#4a3520"/>
<rect x="150" y="18" width="44" height="44" fill="#1a1208"/>
<rect x="194" y="18" width="44" height="44" fill="#4a3520"/>
<rect x="238" y="18" width="44" height="44" fill="#1a1208"/>
<rect x="282" y="18" width="44" height="44" fill="#4a3520"/>
<rect x="326" y="18" width="44" height="44" fill="#1a1208"/>
<rect x="18" y="62" width="44" height="44" fill="#1a1208"/>
<rect x="62" y="62" width="44" height="44" fill="#4a3520"/>
<rect x="106" y="62" width="44" height="44" fill="#1a1208"/>
<rect x="150" y="62" width="44" height="44" fill="#4a3520"/>
<rect x="194" y="62" width="44" height="44" fill="#1a1208"/>
<rect x="238" y="62" width="44" height="44" fill="#4a3520"/>
<rect x="282" y="62" width="44" height="44" fill="#1a1208"/>
<rect x="326" y="62" width="44" height="44" fill="#4a3520"/>
<rect x="18" y="106" width="44" height="44" fill="#4a3520"/>
<rect x="62" y="106" width="44" height="44" fill="#1a1208"/>
<rect x="106" y="106" width="44" height="44" fill="#4a3520"/>
<rect x="150" y="106" width="44" height="44" fill="#1a1208"/>
<rect x="194" y="106" width="44" height="44" fill="#4a3520"/>
<rect x="238" y="106" width="44" height="44" fill="#1a1208"/>
<rect x="282" y="106" width="44" height="44" fill="#4a3520"/>
<rect x="326" y="106" width="44" height="44" fill="#1a1208"/>
<rect x="18" y="150" width="44" height="44" fill="#1a1208"/>
<rect x="62" y="150" width="44" height="44" fill="#4a3520"/>
<rect x="106" y="150" width="44" height="44" fill="#1a1208"/>
<rect x="150" y="150" width="44" height="44" fill="#4a3520"/>
<rect x="194" y="150" width="44" height="44" fill="#1a1208"/>
<rect x="238" y="150" width="44" height="44" fill="#4a3520"/>
<rect x="282" y="150" width="44" height="44" fill="#1a1208"/>
<rect x="326" y="150" width="44" height="44" fill="#4a3520"/>
<rect x="18" y="194" width="44" height="44" fill="#4a3520"/>
<rect x="62" y="194" width="44" height="44" fill="#1a1208"/>
<rect x="106" y="194" width="44" height="44" fill="#4a3520"/>
<rect x="150" y="194" width="44" height="44" fill="#1a1208"/>
<rect x="194" y="194" width="44" height="44" fill="#4a3520"/>
<rect x="238" y="194" width="44" height="44" fill="#1a1208"/>
<rect x="282" y="194" width="44" height="44" fill="#4a3520"/>
<rect x="326" y="194" width="44" height="44" fill="#1a1208"/>
<rect x="18" y="238" width="44" height="44" fill="#1a1208"/>
<rect x="62" y="238" width="44" height="44" fill="#4a3520"/>
<rect x="106" y="238" width="44" height="44" fill="#1a1208"/>
<rect x="150" y="238" width="44" height="44" fill="#4a3520"/>
<rect x="194" y="238" width="44" height="44" fill="#1a1208"/>
<rect x="238" y="238" width="44" height="44" fill="#4a3520"/>
<rect x="282" y="238" width="44" height="44" fill="#1a1208"/>
<rect x="326" y="238" width="44" height="44" fill="#4a3520"/>
<rect x="18" y="282" width="44" height="44" fill="#4a3520"/>
<rect x="62" y="282" width="44" height="44" fill="#1a1208"/>
<rect x="106" y="282" width="44" height="44" fill="#4a3520"/>
<rect x="150" y="282" width="44" height="44" fill="#1a1208"/>
<rect x="194" y="282" width="44" height="44" fill="#4a3520"/>
<rect x="238" y="282" width="44" height="44" fill="#1a1208"/>
<rect x="282" y="282" width="44" height="44" fill="#4a3520"/>
<rect x="326" y="282" width="44" height="44" fill="#1a1208"/>
<rect x="18" y="326" width="44" height="44" fill="#1a1208"/>
<rect x="62" y="326" width="44" height="44" fill="#4a3520"/>
<rect x="106" y="326" width="44" height="44" fill="#1a1208"/>
<rect x="150" y="326" width="44" height="44" fill="#4a3520"/>
<rect x="194" y="326" width="44" height="44" fill="#1a1208"/>
<rect x="238" y="326" width="44" height="44" fill="#4a3520"/>
<rect x="282" y="326" width="44" height="44" fill="#1a1208"/>
<rect x="326" y="326" width="44" height="44" fill="#4a3520"/>
<text x="376" y="45" font-family="Arial,sans-serif" font-size="9" fill="#c9a22766">8</text>
<text x="376" y="89" font-family="Arial,sans-serif" font-size="9" fill="#c9a22766">7</text>
<text x="376" y="133" font-family="Arial,sans-serif" font-size="9" fill="#c9a22766">6</text>
<text x="376" y="177" font-family="Arial,sans-serif" font-size="9" fill="#c9a22766">5</text>
<text x="376" y="221" font-family="Arial,sans-serif" font-size="9" fill="#c9a22766">4</text>
<text x="376" y="265" font-family="Arial,sans-serif" font-size="9" fill="#c9a22766">3</text>
<text x="376" y="309" font-family="Arial,sans-serif" font-size="9" fill="#c9a22766">2</text>
<text x="376" y="353" font-family="Arial,sans-serif" font-size="9" fill="#c9a22766">1</text>
<text x="40" y="383" font-family="Arial,sans-serif" font-size="9" text-anchor="middle" fill="#c9a22766">a</text>
<text x="84" y="383" font-family="Arial,sans-serif" font-size="9" text-anchor="middle" fill="#c9a22766">b</text>
<text x="128" y="383" font-family="Arial,sans-serif" font-size="9" text-anchor="middle" fill="#c9a22766">c</text>
<text x="172" y="383" font-family="Arial,sans-serif" font-size="9" text-anchor="middle" fill="#c9a22766">d</text>
<text x="216" y="383" font-family="Arial,sans-serif" font-size="9" text-anchor="middle" fill="#c9a22766">e</text>
<text x="260" y="383" font-family="Arial,sans-serif" font-size="9" text-anchor="middle" fill="#c9a22766">f</text>
<text x="304" y="383" font-family="Arial,sans-serif" font-size="9" text-anchor="middle" fill="#c9a22766">g</text>
<text x="348" y="383" font-family="Arial,sans-serif" font-size="9" text-anchor="middle" fill="#c9a22766">h</text>
<circle cx="40" cy="40" r="14" fill="#1a1208" stroke="#c9a227" stroke-width="1.2"/>
<text x="40" y="44" font-family="Arial,Helvetica,sans-serif" font-size="12" font-weight="700" text-anchor="middle" fill="#c9a227">R</text>
<circle cx="84" cy="40" r="14" fill="#1a1208" stroke="#c9a227" stroke-width="1.2"/>
<text x="84" y="44" font-family="Arial,Helvetica,sans-serif" font-size="12" font-weight="700" text-anchor="middle" fill="#c9a227">N</text>
<circle cx="128" cy="40" r="14" fill="#1a1208" stroke="#c9a227" stroke-width="1.2"/>
<text x="128" y="44" font-family="Arial,Helvetica,sans-serif" font-size="12" font-weight="700" text-anchor="middle" fill="#c9a227">B</text>
<circle cx="172" cy="40" r="14" fill="#1a1208" stroke="#c9a227" stroke-width="1.2"/>
<text x="172" y="44" font-family="Arial,Helvetica,sans-serif" font-size="12" font-weight="700" text-anchor="middle" fill="#c9a227">Q</text>
<circle cx="216" cy="40" r="14" fill="#1a1208" stroke="#c9a227" stroke-width="1.2"/>
<text x="216" y="44" font-family="Arial,Helvetica,sans-serif" font-size="12" font-weight="700" text-anchor="middle" fill="#c9a227">K</text>
<circle cx="260" cy="40" r="14" fill="#1a1208" stroke="#c9a227" stroke-width="1.2"/>
<text x="260" y="44" font-family="Arial,Helvetica,sans-serif" font-size="12" font-weight="700" text-anchor="middle" fill="#c9a227">B</text>
<circle cx="304" cy="40" r="14" fill="#1a1208" stroke="#c9a227" stroke-width="1.2"/>
<text x="304" y="44" font-family="Arial,Helvetica,sans-serif" font-size="12" font-weight="700" text-anchor="middle" fill="#c9a227">N</text>
<circle cx="348" cy="40" r="14" fill="#1a1208" stroke="#c9a227" stroke-width="1.2"/>
<text x="348" y="44" font-family="Arial,Helvetica,sans-serif" font-size="12" font-weight="700" text-anchor="middle" fill="#c9a227">R</text>
<circle cx="40" cy="84" r="10" fill="#1a1208" stroke="#c9a227" stroke-width="1.2"/>
<circle cx="84" cy="84" r="10" fill="#1a1208" stroke="#c9a227" stroke-width="1.2"/>
<circle cx="128" cy="84" r="10" fill="#1a1208" stroke="#c9a227" stroke-width="1.2"/>
<circle cx="172" cy="84" r="10" fill="#1a1208" stroke="#c9a227" stroke-width="1.2"/>
<circle cx="216" cy="84" r="10" fill="#1a1208" stroke="#c9a227" stroke-width="1.2"/>
<circle cx="260" cy="84" r="10" fill="#1a1208" stroke="#c9a227" stroke-width="1.2"/>
<circle cx="304" cy="84" r="10" fill="#1a1208" stroke="#c9a227" stroke-width="1.2"/>
<circle cx="348" cy="84" r="10" fill="#1a1208" stroke="#c9a227" stroke-width="1.2"/>
<circle cx="40" cy="304" r="10" fill="#c9a227" stroke="#7a5c00" stroke-width="1.2"/>
<circle cx="84" cy="304" r="10" fill="#c9a227" stroke="#7a5c00" stroke-width="1.2"/>
<circle cx="128" cy="304" r="10" fill="#c9a227" stroke="#7a5c00" stroke-width="1.2"/>
<circle cx="172" cy="304" r="10" fill="#c9a227" stroke="#7a5c00" stroke-width="1.2"/>
<circle cx="216" cy="304" r="10" fill="#c9a227" stroke="#7a5c00" stroke-width="1.2"/>
<circle cx="260" cy="304" r="10" fill="#c9a227" stroke="#7a5c00" stroke-width="1.2"/>
<circle cx="304" cy="304" r="10" fill="#c9a227" stroke="#7a5c00" stroke-width="1.2"/>
<circle cx="348" cy="304" r="10" fill="#c9a227" stroke="#7a5c00" stroke-width="1.2"/>
<circle cx="40" cy="348" r="14" fill="#c9a227" stroke="#7a5c00" stroke-width="1.2"/>
<text x="40" y="352" font-family="Arial,Helvetica,sans-serif" font-size="12" font-weight="700" text-anchor="middle" fill="#13100d">R</text>
<circle cx="84" cy="348" r="14" fill="#c9a227" stroke="#7a5c00" stroke-width="1.2"/>
<text x="84" y="352" font-family="Arial,Helvetica,sans-serif" font-size="12" font-weight="700" text-anchor="middle" fill="#13100d">N</text>
<circle cx="128" cy="348" r="14" fill="#c9a227" stroke="#7a5c00" stroke-width="1.2"/>
<text x="128" y="352" font-family="Arial,Helvetica,sans-serif" font-size="12" font-weight="700" text-anchor="middle" fill="#13100d">B</text>
<circle cx="172" cy="348" r="14" fill="#c9a227" stroke="#7a5c00" stroke-width="1.2"/>
<text x="172" y="352" font-family="Arial,Helvetica,sans-serif" font-size="12" font-weight="700" text-anchor="middle" fill="#13100d">Q</text>
<circle cx="216" cy="348" r="14" fill="#c9a227" stroke="#7a5c00" stroke-width="1.2"/>
<text x="216" y="352" font-family="Arial,Helvetica,sans-serif" font-size="12" font-weight="700" text-anchor="middle" fill="#13100d">K</text>
<circle cx="260" cy="348" r="14" fill="#c9a227" stroke="#7a5c00" stroke-width="1.2"/>
<text x="260" y="352" font-family="Arial,Helvetica,sans-serif" font-size="12" font-weight="700" text-anchor="middle" fill="#13100d">B</text>
<circle cx="304" cy="348" r="14" fill="#c9a227" stroke="#7a5c00" stroke-width="1.2"/>
<text x="304" y="352" font-family="Arial,Helvetica,sans-serif" font-size="12" font-weight="700" text-anchor="middle" fill="#13100d">N</text>
<circle cx="348" cy="348" r="14" fill="#c9a227" stroke="#7a5c00" stroke-width="1.2"/>
<text x="348" y="352" font-family="Arial,Helvetica,sans-serif" font-size="12" font-weight="700" text-anchor="middle" fill="#13100d">R</text>
</svg>
