<svg xmlns="http://www.w3.org/2000/svg" viewBox="0 0 1280 420" width="1280" height="420" role="img" aria-label="Aman Chauhan — Backend Engineer">
  <defs>
    <linearGradient id="bg" x1="0" y1="0" x2="1" y2="1">
      <stop offset="0" stop-color="#0b0d12"></stop>
      <stop offset="0.5" stop-color="#11151c"></stop>
      <stop offset="1" stop-color="#0a0c11"></stop>
    </linearGradient>
    <radialGradient id="glow" cx="0.78" cy="0.42" r="0.5">
      <stop offset="0" stop-color="#c9a227" stop-opacity="0.18"></stop>
      <stop offset="1" stop-color="#c9a227" stop-opacity="0"></stop>
    </radialGradient>
    <linearGradient id="gold" x1="0" y1="0" x2="1" y2="0">
      <stop offset="0" stop-color="#a6801c"></stop>
      <stop offset="0.5" stop-color="#e6c45f"></stop>
      <stop offset="1" stop-color="#a6801c"></stop>
    </linearGradient>
    <linearGradient id="goldv" x1="0" y1="0" x2="0" y2="1">
      <stop offset="0" stop-color="#f0d589"></stop>
      <stop offset="1" stop-color="#b88f22"></stop>
    </linearGradient>
  </defs>

  <rect width="1280" height="420" fill="url(#bg)"></rect>
  <rect width="1280" height="420" fill="url(#glow)"></rect>

  <text x="20" y="470" font-family="Georgia, serif" font-size="460" fill="#c9a227" opacity="0.05">♚</text>

  <rect x="18" y="18" width="1244" height="384" fill="none" stroke="url(#gold)" stroke-width="1.25" opacity="0.85"></rect>
  <rect x="26" y="26" width="1228" height="368" fill="none" stroke="#c9a227" stroke-width="0.5" opacity="0.28"></rect>

  <g stroke="#e6c45f" stroke-width="1.5" opacity="0.7">
    <path d="M40 40 h26 M40 40 v26"></path>
    <path d="M1240 40 h-26 M1240 40 v26"></path>
    <path d="M40 380 h26 M40 380 v-26"></path>
    <path d="M1240 380 h-26 M1240 380 v-26"></path>
  </g>

  <text x="82" y="118" font-family="ui-monospace, monospace" font-size="17" letter-spacing="6" fill="#c9a227">SYSTEMS · BACKEND · INFRASTRUCTURE</text>

  <text x="80" y="208" font-family="Georgia, serif" font-size="80" font-weight="700" letter-spacing="6" fill="#ece6d8">AMAN CHAUHAN</text>

  <rect x="84" y="232" width="560" height="2.5" fill="url(#gold)"></rect>

  <text x="84" y="278" font-family="ui-monospace, monospace" font-size="18" letter-spacing="2" fill="#d8b24a">Distributed systems · Event-driven · Cloud-native</text>
  <text x="84" y="316" font-family="Georgia, serif" font-size="23" font-style="italic" fill="#9aa1ad">Designing positions that hold under pressure.</text>

  <text x="84" y="372" font-family="ui-monospace, monospace" font-size="14" letter-spacing="2" fill="#6b7280">// thinking ten moves ahead</text>

  <g transform="translate(900,70)">
    <rect x="-14" y="-14" width="308" height="308" fill="#c9a227" opacity="0.05"></rect>
    <g>
      <rect x="0" y="0" width="56" height="56" fill="#c9a227" opacity="0.07"></rect>
      <rect x="112" y="0" width="56" height="56" fill="#c9a227" opacity="0.07"></rect>
      <rect x="224" y="0" width="56" height="56" fill="#c9a227" opacity="0.07"></rect>
      <rect x="56" y="56" width="56" height="56" fill="#c9a227" opacity="0.07"></rect>
      <rect x="168" y="56" width="56" height="56" fill="#c9a227" opacity="0.07"></rect>
      <rect x="0" y="112" width="56" height="56" fill="#c9a227" opacity="0.07"></rect>
      <rect x="112" y="112" width="56" height="56" fill="#c9a227" opacity="0.07"></rect>
      <rect x="224" y="112" width="56" height="56" fill="#c9a227" opacity="0.07"></rect>
      <rect x="56" y="168" width="56" height="56" fill="#c9a227" opacity="0.07"></rect>
      <rect x="168" y="168" width="56" height="56" fill="#c9a227" opacity="0.07"></rect>
      <rect x="0" y="224" width="56" height="56" fill="#c9a227" opacity="0.07"></rect>
      <rect x="112" y="224" width="56" height="56" fill="#c9a227" opacity="0.07"></rect>
      <rect x="224" y="224" width="56" height="56" fill="#c9a227" opacity="0.07"></rect>
    </g>
    <rect x="0" y="0" width="280" height="280" fill="none" stroke="#c9a227" stroke-width="1" opacity="0.3"></rect>

    <text x="140" y="152" text-anchor="middle" font-family="Georgia, serif" font-size="64" fill="url(#goldv)">♚</text>
    <text x="28" y="208" text-anchor="middle" font-family="Georgia, serif" font-size="48" fill="#c9a227" opacity="0.85">♞</text>
    <text x="196" y="96" text-anchor="middle" font-family="Georgia, serif" font-size="40" fill="#c9a227" opacity="0.7">♟</text>
    <text x="252" y="264" text-anchor="middle" font-family="Georgia, serif" font-size="44" fill="#c9a227" opacity="0.75">♜</text>
  </g>
</svg>